<svg xmlns="http://www.w3.org/2000/svg" viewBox="0 0 256 256" role="img" aria-label="Datummärkning">
  <defs>
    <linearGradient id="g" x1="38" y1="36" x2="212" y2="220" gradientUnits="userSpaceOnUse">
      <stop stop-color="#ffb22e"/>
      <stop offset="1" stop-color="#dd8f24"/>
    </linearGradient>
    <filter id="s" x="-20%" y="-20%" width="140%" height="140%">
      <feDropShadow dx="0" dy="4" stdDeviation="4" flood-color="#000" flood-opacity=".18"/>
    </filter>
  </defs>
  <path fill="none" stroke="url(#g)" stroke-width="18" stroke-linecap="round" stroke-linejoin="round" filter="url(#s)" d="M40 55c0-17 13-30 30-30h63c8 0 16 3 22 9l66 66c12 12 12 31 0 43l-69 69c-12 12-31 12-43 0l-66-66c-6-6-9-14-9-22V55Z"/>
  <circle cx="83" cy="75" r="14" fill="none" stroke="url(#g)" stroke-width="14"/>
  <path fill="none" stroke="url(#g)" stroke-width="18" stroke-linecap="round" stroke-linejoin="round" d="m104 130 22 22 44-47"/>
  <path fill="none" stroke="url(#g)" stroke-width="12" stroke-linecap="round" d="M139 167h55M139 187h55"/>
</svg>
