<svg xmlns="http://www.w3.org/2000/svg" viewBox="0 0 256 256" role="img" aria-label="Städning">
  <defs>
    <linearGradient id="g" x1="52" y1="42" x2="202" y2="220" gradientUnits="userSpaceOnUse">
      <stop stop-color="#73a2ff"/>
      <stop offset="1" stop-color="#386de8"/>
    </linearGradient>
    <filter id="s" x="-20%" y="-20%" width="140%" height="140%">
      <feDropShadow dx="0" dy="4" stdDeviation="4" flood-color="#000" flood-opacity=".18"/>
    </filter>
  </defs>
  <path fill="none" stroke="url(#g)" stroke-width="17" stroke-linecap="round" stroke-linejoin="round" filter="url(#s)" d="M143 150 189 45a20 20 0 0 1 26 26l-57 93"/>
  <path fill="none" stroke="url(#g)" stroke-width="17" stroke-linecap="round" stroke-linejoin="round" d="M105 129c31 0 61 22 61 61v7c-41 17-86 11-122-19l42-39c5-6 12-10 19-10Z"/>
  <path fill="none" stroke="url(#g)" stroke-width="11" stroke-linecap="round" d="M62 166 91 194M102 174l20 29"/>
  <path fill="none" stroke="url(#g)" stroke-width="14" stroke-linecap="round" stroke-linejoin="round" d="M54 62l14 29 29 14-29 14-14 29-14-29-29-14 29-14 14-29ZM103 32l9 18 18 9-18 9-9 18-9-18-18-9 18-9 9-18Z" opacity=".95"/>
</svg>
