<svg version="1.1" id="Layer_1" xmlns="http://www.w3.org/2000/svg" xmlns:xlink="http://www.w3.org/1999/xlink" x="0px" y="0px"
	 width="100%" viewBox="0 0 352 320" enable-background="new 0 0 352 320" xml:space="preserve">
<path fill="#000000" opacity="1.000000" stroke="none" 
	d="
M49.403175,153.401917 
	C60.289425,143.980606 72.851089,144.743668 81.643700,155.624146 
	C97.656471,175.439255 113.375679,195.491547 129.235474,215.430481 
	C130.250977,216.707169 130.982758,218.291336 133.261765,219.210587 
	C137.546188,214.008240 141.997696,208.702484 146.343018,203.311142 
	C183.327881,157.423096 220.291183,111.517639 257.267365,65.622589 
	C262.490814,59.139183 267.556976,52.515957 273.031830,46.250977 
	C283.594116,34.164303 303.029755,36.688377 308.675079,50.811634 
	C312.167206,59.548248 310.024689,67.598206 304.423950,74.653999 
	C291.070312,91.476822 277.416595,108.061050 264.008575,124.841118 
	C237.193192,158.400467 210.476181,192.038391 183.687988,225.619476 
	C171.956161,240.326248 160.203583,255.017166 148.356689,269.631165 
	C140.887589,278.844849 124.620911,280.650360 115.150276,268.192047 
	C95.300392,242.080063 75.002357,216.308502 54.854908,190.423203 
	C51.288002,185.840454 47.093269,181.745331 45.169220,176.009766 
	C42.406296,167.773483 43.193844,160.286743 49.403175,153.401917 
z"/>
</svg>