<svg version="1.1" id="Layer_1" xmlns="http://www.w3.org/2000/svg" xmlns:xlink="http://www.w3.org/1999/xlink" x="0px" y="0px"
	 width="100%" viewBox="0 0 1672 335" enable-background="new 0 0 1672 335" xml:space="preserve">
<path fill="#FFFFFF" opacity="1.000000" stroke="none" 
	d="
M1583.000000,336.000000 
	C1055.398926,336.000000 528.297913,336.000000 1.098413,336.000000 
	C1.098413,224.412918 1.098413,112.825714 1.098413,1.119259 
	C558.333313,1.119259 1115.666626,1.119259 1672.994141,1.119259 
	C1672.994141,112.702225 1672.994141,224.351105 1672.991211,336.000000 
	C1643.158936,336.000000 1613.329468,336.000000 1583.000000,336.000000 
M810.512146,179.189484 
	C796.339722,179.098221 782.167297,179.006958 767.575256,178.204727 
	C767.575256,168.832825 767.575256,159.460922 767.575256,149.759796 
	C782.582825,149.759796 797.212341,149.814728 811.841187,149.733597 
	C817.951111,149.699707 820.813232,146.814041 820.945618,141.001175 
	C821.074890,135.323593 817.612366,131.282578 812.006592,131.243774 
	C793.704895,131.117081 775.401611,131.134262 757.099548,131.214798 
	C753.204590,131.231934 750.005859,132.727036 748.508606,137.372269 
	C748.463135,137.921524 748.417664,138.470795 748.173767,139.935638 
	C748.150452,171.267853 748.112122,202.600067 748.115662,233.932281 
	C748.116394,240.643036 750.833313,243.574341 757.904114,243.981064 
	C761.266663,243.908157 764.629211,243.835251 768.747864,243.962158 
	C770.536804,243.898636 772.325806,243.835114 774.901184,243.960266 
	C780.264893,243.897934 785.628540,243.835602 791.864746,243.973404 
	C794.245728,243.909744 796.626709,243.846085 799.918762,243.973633 
	C804.276672,243.910233 808.634644,243.846832 813.740601,243.976013 
	C818.331482,243.860352 820.646545,241.184677 821.873047,236.218521 
	C821.786438,233.061661 822.171204,229.681564 817.696777,227.986130 
	C816.794189,227.416611 815.891541,226.847107 814.072449,226.075882 
	C800.114624,226.061356 786.156555,226.082428 772.199280,225.986938 
	C770.470215,225.975113 768.745361,225.343613 767.150085,224.069901 
	C767.150085,215.021515 767.150085,205.973114 767.150085,196.583344 
	C780.337524,196.583344 792.904846,196.568146 805.472168,196.589752 
	C811.739563,196.600540 813.893921,195.039398 815.942505,188.218628 
	C815.056335,185.908905 814.170166,183.599182 812.985352,180.819824 
	C812.343506,180.499069 811.701599,180.178314 810.512146,179.189484 
M231.670593,252.178421 
	C238.645309,243.484070 245.644714,234.809387 252.590347,226.091858 
	C279.548035,192.257095 306.449402,158.377350 333.452271,124.578720 
	C346.850037,107.809174 360.449127,91.200630 373.907135,74.479012 
	C382.960480,63.230183 381.316833,48.578270 370.343750,41.932354 
	C361.159149,36.369652 349.773834,38.840034 342.039551,48.417568 
	C300.547699,99.797760 259.127991,151.236206 217.669449,202.643326 
	C212.824524,208.650848 207.893982,214.589310 202.739883,220.881134 
	C197.378815,214.098801 192.447220,207.839996 187.494492,201.597977 
	C175.604858,186.613266 163.735199,171.612518 151.795624,156.667664 
	C146.737762,150.336700 140.295914,146.283371 131.961334,147.734146 
	C117.175972,150.307800 110.060059,163.838165 116.480217,177.438721 
	C118.776543,182.303268 122.569084,186.503357 125.914879,190.823853 
	C146.076706,216.859177 166.260773,242.877625 186.537155,268.823761 
	C194.760391,279.346436 210.095566,279.122314 218.346786,268.628815 
	C222.560715,263.269745 226.925537,258.029327 231.670593,252.178421 
M492.825287,180.669312 
	C486.238129,167.266800 479.635437,153.871902 473.069489,140.459015 
	C468.905090,131.952118 464.824677,129.754990 455.258087,130.983505 
	C447.753357,131.947220 445.191284,134.818329 445.186859,142.412827 
	C445.169006,173.064819 445.163269,203.716812 445.173340,234.368805 
	C445.175568,241.175568 448.679688,244.807083 455.054535,244.728409 
	C461.684875,244.646545 464.959503,241.278351 464.969055,234.423203 
	C464.997589,213.933075 464.998657,193.442917 465.010284,172.952759 
	C465.011078,171.570007 465.010406,170.187256 465.010406,168.804504 
	C469.012085,174.518173 472.023560,180.357330 474.957397,186.235229 
	C481.019012,198.379532 487.071777,210.528503 493.059235,222.709427 
	C495.228729,227.123077 498.884277,229.038864 503.537415,228.944580 
	C507.401306,228.866257 511.118164,228.138351 513.163757,224.077408 
	C522.061890,206.412766 531.016113,188.776306 539.975281,171.142532 
	C540.345276,170.414215 540.970276,169.815414 541.918884,168.580093 
	C541.918884,191.411758 541.882202,213.381180 541.942505,235.350327 
	C541.959290,241.477417 545.502502,244.765686 551.720337,244.798035 
	C557.848267,244.829910 561.777283,241.419556 561.786926,235.577988 
	C561.838684,204.093384 561.895752,172.607529 561.584961,141.125732 
	C561.556824,138.280563 559.654114,134.398697 557.366211,132.831467 
	C550.845398,128.364716 539.861328,130.231613 536.097595,138.210602 
	C529.508179,152.180023 522.138550,165.781174 515.107422,179.542618 
	C511.374817,186.848145 507.666901,194.166306 503.561462,202.238419 
	C499.772919,194.697495 496.425873,188.035324 492.825287,180.669312 
M905.757202,202.500137 
	C905.755493,193.003952 905.883179,183.505402 905.710693,174.012314 
	C905.574951,166.541306 898.129211,162.251740 891.991577,166.379562 
	C889.636780,167.963272 888.520996,171.389252 886.858826,173.947845 
	C870.697327,160.297974 851.541504,160.916428 838.079163,176.631195 
	C827.636841,188.820663 825.949890,203.318542 830.569763,218.295013 
	C838.546753,244.153931 869.483276,251.999069 886.563232,233.991516 
	C886.646973,233.903259 887.112671,234.177277 887.234192,234.221619 
	C887.234192,237.780167 887.450928,241.280685 887.193237,244.745941 
	C886.444946,254.808365 879.498047,262.081573 869.997314,263.029144 
	C861.992432,263.827484 854.921570,261.940491 848.892761,256.313232 
	C844.093201,251.833435 839.994629,251.948654 836.474487,256.220154 
	C832.357422,261.215942 832.575012,266.359955 837.719727,269.992828 
	C841.598694,272.731842 845.848816,275.255341 850.304565,276.815887 
	C875.017639,285.471130 906.626770,275.411011 905.815369,237.985092 
	C905.566284,226.495071 905.762451,214.995407 905.757202,202.500137 
M1138.634521,206.839172 
	C1136.651367,204.015427 1134.668213,201.191666 1133.458008,199.468414 
	C1136.770386,195.564270 1139.523560,191.998169 1142.619019,188.759033 
	C1145.836670,185.391968 1149.384644,182.340515 1152.788940,179.151825 
	C1157.099121,175.114594 1156.611816,169.787842 1151.640137,166.604034 
	C1147.345825,163.854019 1142.576538,164.430954 1138.524170,168.400696 
	C1129.837402,176.910294 1121.227661,185.498383 1112.564453,194.032135 
	C1111.710571,194.873322 1110.705078,195.560791 1109.024170,196.924896 
	C1109.024170,194.195618 1109.023315,192.416138 1109.024170,190.636658 
	C1109.031616,173.474609 1109.080688,156.312439 1109.023804,139.150604 
	C1109.004883,133.446594 1105.661865,130.197113 1100.038452,130.055191 
	C1094.537598,129.916351 1090.966187,133.203796 1090.951172,138.949478 
	C1090.866089,171.273483 1090.857544,203.597809 1090.896606,235.921936 
	C1090.902832,241.127167 1094.505371,244.415726 1099.852173,244.531860 
	C1105.461060,244.653687 1108.912598,241.389053 1109.019775,235.705154 
	C1109.101440,231.374649 1108.926880,227.037735 1109.078247,222.711075 
	C1109.126099,221.341339 1109.467285,219.618210 1110.347656,218.708633 
	C1113.095215,215.869522 1116.165039,213.342224 1119.436401,210.400360 
	C1121.442017,213.265396 1123.237061,215.812195 1125.014160,218.371460 
	C1130.223389,225.873764 1135.299805,233.472641 1140.677612,240.852036 
	C1143.903564,245.278854 1150.665405,245.845520 1154.945801,242.457962 
	C1158.744263,239.451813 1158.853271,234.912643 1155.361694,230.118805 
	C1149.876343,222.587524 1144.453613,215.010773 1138.634521,206.839172 
M954.672363,164.434891 
	C946.703125,164.887222 939.169922,166.767471 932.845825,171.883316 
	C920.031433,182.249359 915.811707,195.865601 918.078857,211.853394 
	C920.222290,226.968521 927.910583,237.968048 942.588745,242.874832 
	C958.391113,248.157425 973.167297,245.805252 985.783020,234.364655 
	C990.228760,230.333038 989.726746,225.925293 985.122375,222.051361 
	C981.536621,219.034424 978.066772,219.069672 973.946838,222.437103 
	C966.372253,228.628189 957.930359,230.185913 948.726868,227.138596 
	C941.439392,224.725662 936.881531,218.242950 937.121277,211.198761 
	C937.279480,211.146713 937.437561,211.049454 937.595886,211.049072 
	C952.414734,211.012436 967.233826,211.018188 982.052429,210.938065 
	C988.996460,210.900513 992.005676,208.149002 991.850647,201.273926 
	C991.390198,180.859390 977.955994,164.626282 954.672363,164.434891 
M1239.149780,216.628708 
	C1239.574097,214.521927 1240.159424,212.433121 1240.396851,210.305496 
	C1242.142822,194.659042 1237.767700,181.305420 1224.803833,171.748337 
	C1211.738892,162.116714 1192.768433,161.934875 1178.605835,170.757721 
	C1165.719849,178.785324 1159.037354,195.627228 1161.926147,212.795410 
	C1165.148682,231.946625 1179.146606,244.478546 1199.206787,245.331009 
	C1218.659302,246.157654 1234.330078,235.647781 1239.149780,216.628708 
M1455.204834,171.663605 
	C1446.035400,178.236343 1441.415527,187.376862 1439.591797,198.340271 
	C1436.905640,214.487946 1443.733887,231.043182 1456.939941,239.506805 
	C1469.891113,247.807037 1489.346680,247.242767 1502.240112,238.192886 
	C1518.010376,227.123810 1522.949585,203.083481 1513.306274,184.330231 
	C1503.110840,164.503387 1476.353027,158.395767 1455.204834,171.663605 
M620.247559,166.564026 
	C619.162964,169.388931 617.178223,172.201294 617.138672,175.040756 
	C616.864685,194.694016 616.996704,214.352936 616.996094,234.010025 
	C616.995911,240.839249 620.142883,244.531937 626.020691,244.588837 
	C632.195435,244.648621 635.243530,241.324005 635.260071,234.324615 
	C635.286743,222.997345 635.214417,211.669861 635.228027,200.342529 
	C635.241272,189.300720 642.034241,181.929703 652.314819,181.727631 
	C662.604004,181.525421 668.325867,187.470596 668.593079,199.361237 
	C668.862488,211.349258 668.635925,223.347946 668.672119,235.341843 
	C668.689575,241.141281 672.020569,244.624359 677.409119,244.619644 
	C682.918884,244.614838 686.752197,241.206650 686.796021,235.777878 
	C686.910217,221.619247 687.113586,207.452087 686.758240,193.301453 
	C686.367004,177.720901 678.016357,167.638123 664.284058,165.095932 
	C652.909668,162.990250 643.234924,165.938950 635.493652,174.949173 
	C633.523621,165.684479 629.572571,163.379852 620.247559,166.564026 
M1021.973999,236.034180 
	C1021.971802,224.202393 1021.909058,212.370224 1021.984680,200.538925 
	C1022.058411,189.004745 1029.444092,181.602890 1040.546021,181.760544 
	C1050.622437,181.903641 1055.722900,188.241730 1055.648315,200.354706 
	C1055.575439,212.185425 1055.511230,224.017685 1055.628418,235.847427 
	C1055.682007,241.267563 1059.099609,244.405640 1064.511475,244.560669 
	C1070.019287,244.718445 1073.973999,241.594376 1074.006104,236.595383 
	C1074.102417,221.598511 1074.686157,206.561371 1073.813843,191.613831 
	C1072.940186,176.646698 1064.075806,166.877594 1049.697998,164.897522 
	C1038.776733,163.393448 1029.524658,166.353714 1022.108032,175.063126 
	C1020.823181,167.059952 1017.847229,164.422867 1011.349365,165.058777 
	C1006.049438,165.577438 1003.885193,168.718552 1003.888794,175.894852 
	C1003.898621,195.725388 1003.896790,215.555923 1003.928528,235.386429 
	C1003.937561,241.006668 1006.490540,244.014282 1011.573181,244.566544 
	C1016.918396,245.147324 1020.677307,242.383240 1021.973999,236.034180 
M1253.079590,180.570389 
	C1253.079346,198.896851 1253.040039,217.223450 1253.102417,235.549698 
	C1253.121216,241.095123 1256.726074,244.482361 1262.246704,244.484711 
	C1268.165039,244.487228 1271.020508,241.642044 1271.044434,235.575455 
	C1271.092285,223.413361 1270.995361,211.249985 1271.135864,199.089203 
	C1271.245728,189.582672 1278.343628,182.159393 1287.496094,181.651535 
	C1297.982910,181.069641 1303.038940,185.578583 1304.387695,196.788422 
	C1304.585571,198.433029 1304.605103,200.106400 1304.604248,201.766434 
	C1304.598267,213.094864 1304.464111,224.424347 1304.583984,235.751236 
	C1304.641113,241.155334 1308.142578,244.408447 1313.415039,244.532516 
	C1319.015625,244.664322 1322.666382,241.475601 1322.713867,235.762238 
	C1322.831543,221.602570 1323.057617,207.428085 1322.556152,193.283798 
	C1322.128174,181.211288 1317.540894,171.084366 1305.252563,166.632462 
	C1292.886353,162.152374 1281.650146,163.931427 1272.453613,174.084686 
	C1272.168823,174.399002 1271.639526,174.491714 1271.184937,174.706253 
	C1270.446289,167.733337 1267.524170,164.836319 1261.582275,165.069763 
	C1255.904053,165.292862 1253.073242,168.787384 1253.058105,175.599945 
	C1253.055176,176.932770 1253.068848,178.265610 1253.079590,180.570389 
M1343.444702,154.717438 
	C1343.444702,158.171448 1343.444702,161.625473 1343.444702,165.432648 
	C1337.279541,165.974823 1329.833130,164.510635 1329.730225,173.803085 
	C1329.707886,175.817429 1330.362671,179.009445 1331.676636,179.642044 
	C1335.175537,181.326614 1339.203857,181.911896 1343.516235,183.066696 
	C1343.516235,184.114136 1343.514648,185.743759 1343.516479,187.373383 
	C1343.528687,198.694504 1343.373779,210.018875 1343.592529,221.335999 
	C1343.943848,239.508148 1362.594482,250.829193 1378.903076,242.900757 
	C1383.053589,240.882950 1383.879395,237.340591 1382.957153,233.228561 
	C1382.061768,229.236526 1379.635498,227.328217 1375.351074,227.918640 
	C1373.394287,228.188278 1371.331665,228.175720 1369.378052,227.883026 
	C1364.982544,227.224442 1361.712036,224.812073 1361.627319,220.164200 
	C1361.397949,207.573242 1361.548706,194.975357 1361.548706,181.907715 
	C1366.472290,181.907715 1370.930298,181.858963 1375.386597,181.923004 
	C1379.017334,181.975159 1381.403076,180.382202 1382.484863,176.907852 
	C1384.352417,170.910034 1380.721558,165.819626 1374.358276,165.653641 
	C1370.118652,165.543030 1365.874023,165.632614 1361.310059,165.632614 
	C1361.310059,159.872543 1361.398560,154.894104 1361.281128,149.920532 
	C1361.192871,146.178955 1359.397095,143.836288 1355.516724,142.910080 
	C1347.683472,141.040344 1343.346680,144.841034 1343.444702,154.717438 
M1548.832520,212.499969 
	C1548.822021,188.201950 1548.845947,163.903824 1548.777954,139.605957 
	C1548.760132,133.222427 1545.677124,130.020325 1539.929810,129.982147 
	C1533.940430,129.942352 1530.482788,133.055008 1530.469482,139.025986 
	C1530.398193,171.143829 1530.389160,203.261993 1530.460693,235.379822 
	C1530.473999,241.356628 1534.226929,244.832001 1539.854126,244.643295 
	C1545.533447,244.452850 1548.781128,241.007782 1548.824463,234.968689 
	C1548.875854,227.812805 1548.832520,220.656250 1548.832520,212.499969 
M1565.109863,199.499817 
	C1565.121216,211.656601 1565.080811,223.813751 1565.167114,235.970001 
	C1565.206177,241.461334 1568.440796,244.538712 1573.939941,244.647873 
	C1579.658813,244.761353 1582.997925,241.614563 1583.114746,235.855881 
	C1583.192383,232.027634 1583.098389,228.196106 1583.098389,224.366058 
	C1583.097778,196.056000 1583.081665,167.745895 1583.127197,139.435898 
	C1583.133301,135.670166 1582.360107,132.607147 1578.476562,130.947052 
	C1571.428955,127.934418 1565.173462,131.849716 1565.148804,139.548141 
	C1565.086060,159.198608 1565.106567,178.849335 1565.109863,199.499817 
M1392.414429,223.490295 
	C1392.471436,227.822372 1392.508301,232.154846 1392.591919,236.486404 
	C1392.663818,240.217789 1394.376099,242.741669 1397.996216,244.005615 
	C1404.748291,246.363022 1410.692017,242.449799 1410.763428,235.300812 
	C1410.873169,224.303940 1410.570557,213.300003 1410.832031,202.308334 
	C1411.131958,189.696426 1418.437988,182.217438 1430.026733,182.078781 
	C1435.804077,182.009674 1437.805420,179.929718 1437.973022,173.821152 
	C1438.127930,168.166534 1435.600586,164.898529 1430.380127,164.742905 
	C1423.113525,164.526260 1417.025269,167.070999 1412.881592,173.375244 
	C1412.160034,174.473099 1411.406128,175.549759 1411.388672,175.575333 
	C1409.521484,172.319550 1408.432495,168.009216 1405.680908,166.119568 
	C1399.759888,162.053314 1392.540527,166.915314 1392.493408,174.504715 
	C1392.394287,190.500519 1392.425659,206.497162 1392.414429,223.490295 
M597.807007,240.954376 
	C598.248535,238.711990 599.061157,236.471649 599.073425,234.226913 
	C599.182068,214.422791 599.176697,194.617844 599.141235,174.813248 
	C599.129211,168.129211 596.179077,165.044571 590.088684,165.054535 
	C583.912170,165.064636 580.959839,168.177277 580.953552,174.789703 
	C580.934753,194.595322 580.995483,214.401245 580.892273,234.206360 
	C580.871704,238.155106 581.537720,241.679169 585.379578,243.396225 
	C589.591797,245.278839 593.782837,245.104202 597.807007,240.954376 
M581.916260,148.403091 
	C583.072693,149.312943 584.116821,150.447830 585.406189,151.091278 
	C589.595825,153.182083 595.007324,152.082916 598.191711,148.679810 
	C601.308289,145.349152 601.695801,140.122772 599.109558,135.763290 
	C596.568542,131.480072 592.647461,130.229050 588.008545,131.101974 
	C580.998352,132.421127 578.145813,139.756622 581.916260,148.403091 
z"/>
<path fill="#030303" opacity="1.000000" stroke="none" 
	d="
M231.446381,252.456848 
	C226.925537,258.029327 222.560715,263.269745 218.346786,268.628815 
	C210.095566,279.122314 194.760391,279.346436 186.537155,268.823761 
	C166.260773,242.877625 146.076706,216.859177 125.914879,190.823853 
	C122.569084,186.503357 118.776543,182.303268 116.480217,177.438721 
	C110.060059,163.838165 117.175972,150.307800 131.961334,147.734146 
	C140.295914,146.283371 146.737762,150.336700 151.795624,156.667664 
	C163.735199,171.612518 175.604858,186.613266 187.494492,201.597977 
	C192.447220,207.839996 197.378815,214.098801 202.739883,220.881134 
	C207.893982,214.589310 212.824524,208.650848 217.669449,202.643326 
	C259.127991,151.236206 300.547699,99.797760 342.039551,48.417568 
	C349.773834,38.840034 361.159149,36.369652 370.343750,41.932354 
	C381.316833,48.578270 382.960480,63.230183 373.907135,74.479012 
	C360.449127,91.200630 346.850037,107.809174 333.452271,124.578720 
	C306.449402,158.377350 279.548035,192.257095 252.590347,226.091858 
	C245.644714,234.809387 238.645309,243.484070 231.446381,252.456848 
z"/>
<path fill="#060606" opacity="1.000000" stroke="none" 
	d="
M492.952026,181.021240 
	C496.425873,188.035324 499.772919,194.697495 503.561462,202.238419 
	C507.666901,194.166306 511.374817,186.848145 515.107422,179.542618 
	C522.138550,165.781174 529.508179,152.180023 536.097595,138.210602 
	C539.861328,130.231613 550.845398,128.364716 557.366211,132.831467 
	C559.654114,134.398697 561.556824,138.280563 561.584961,141.125732 
	C561.895752,172.607529 561.838684,204.093384 561.786926,235.577988 
	C561.777283,241.419556 557.848267,244.829910 551.720337,244.798035 
	C545.502502,244.765686 541.959290,241.477417 541.942505,235.350327 
	C541.882202,213.381180 541.918884,191.411758 541.918884,168.580093 
	C540.970276,169.815414 540.345276,170.414215 539.975281,171.142532 
	C531.016113,188.776306 522.061890,206.412766 513.163757,224.077408 
	C511.118164,228.138351 507.401306,228.866257 503.537415,228.944580 
	C498.884277,229.038864 495.228729,227.123077 493.059235,222.709427 
	C487.071777,210.528503 481.019012,198.379532 474.957397,186.235229 
	C472.023560,180.357330 469.012085,174.518173 465.010406,168.804504 
	C465.010406,170.187256 465.011078,171.570007 465.010284,172.952759 
	C464.998657,193.442917 464.997589,213.933075 464.969055,234.423203 
	C464.959503,241.278351 461.684875,244.646545 455.054535,244.728409 
	C448.679688,244.807083 445.175568,241.175568 445.173340,234.368805 
	C445.163269,203.716812 445.169006,173.064819 445.186859,142.412827 
	C445.191284,134.818329 447.753357,131.947220 455.258087,130.983505 
	C464.824677,129.754990 468.905090,131.952118 473.069489,140.459015 
	C479.635437,153.871902 486.238129,167.266800 492.952026,181.021240 
z"/>
<path fill="#080807" opacity="1.000000" stroke="none" 
	d="
M905.755981,203.000153 
	C905.762451,214.995407 905.566284,226.495071 905.815369,237.985092 
	C906.626770,275.411011 875.017639,285.471130 850.304565,276.815887 
	C845.848816,275.255341 841.598694,272.731842 837.719727,269.992828 
	C832.575012,266.359955 832.357422,261.215942 836.474487,256.220154 
	C839.994629,251.948654 844.093201,251.833435 848.892761,256.313232 
	C854.921570,261.940491 861.992432,263.827484 869.997314,263.029144 
	C879.498047,262.081573 886.444946,254.808365 887.193237,244.745941 
	C887.450928,241.280685 887.234192,237.780167 887.234192,234.221619 
	C887.112671,234.177277 886.646973,233.903259 886.563232,233.991516 
	C869.483276,251.999069 838.546753,244.153931 830.569763,218.295013 
	C825.949890,203.318542 827.636841,188.820663 838.079163,176.631195 
	C851.541504,160.916428 870.697327,160.297974 886.858826,173.947845 
	C888.520996,171.389252 889.636780,167.963272 891.991577,166.379562 
	C898.129211,162.251740 905.574951,166.541306 905.710693,174.012314 
	C905.883179,183.505402 905.755493,193.003952 905.755981,203.000153 
M882.805786,219.262848 
	C884.450073,215.516266 887.010376,211.900299 887.566711,207.998581 
	C889.228516,196.343903 885.100891,185.367111 872.942566,182.059494 
	C861.445923,178.931900 851.577759,185.101685 848.300659,197.034103 
	C845.521118,207.155029 849.407654,218.745087 857.191895,223.548264 
	C864.848633,228.272720 874.640198,226.819153 882.805786,219.262848 
z"/>
<path fill="#070606" opacity="1.000000" stroke="none" 
	d="
M1138.819336,207.146225 
	C1144.453613,215.010773 1149.876343,222.587524 1155.361694,230.118805 
	C1158.853271,234.912643 1158.744263,239.451813 1154.945801,242.457962 
	C1150.665405,245.845520 1143.903564,245.278854 1140.677612,240.852036 
	C1135.299805,233.472641 1130.223389,225.873764 1125.014160,218.371460 
	C1123.237061,215.812195 1121.442017,213.265396 1119.436401,210.400360 
	C1116.165039,213.342224 1113.095215,215.869522 1110.347656,218.708633 
	C1109.467285,219.618210 1109.126099,221.341339 1109.078247,222.711075 
	C1108.926880,227.037735 1109.101440,231.374649 1109.019775,235.705154 
	C1108.912598,241.389053 1105.461060,244.653687 1099.852173,244.531860 
	C1094.505371,244.415726 1090.902832,241.127167 1090.896606,235.921936 
	C1090.857544,203.597809 1090.866089,171.273483 1090.951172,138.949478 
	C1090.966187,133.203796 1094.537598,129.916351 1100.038452,130.055191 
	C1105.661865,130.197113 1109.004883,133.446594 1109.023804,139.150604 
	C1109.080688,156.312439 1109.031616,173.474609 1109.024170,190.636658 
	C1109.023315,192.416138 1109.024170,194.195618 1109.024170,196.924896 
	C1110.705078,195.560791 1111.710571,194.873322 1112.564453,194.032135 
	C1121.227661,185.498383 1129.837402,176.910294 1138.524170,168.400696 
	C1142.576538,164.430954 1147.345825,163.854019 1151.640137,166.604034 
	C1156.611816,169.787842 1157.099121,175.114594 1152.788940,179.151825 
	C1149.384644,182.340515 1145.836670,185.391968 1142.619019,188.759033 
	C1139.523560,191.998169 1136.770386,195.564270 1133.458008,199.468414 
	C1134.668213,201.191666 1136.651367,204.015427 1138.819336,207.146225 
z"/>
<path fill="#070707" opacity="1.000000" stroke="none" 
	d="
M955.114258,164.433044 
	C977.955994,164.626282 991.390198,180.859390 991.850647,201.273926 
	C992.005676,208.149002 988.996460,210.900513 982.052429,210.938065 
	C967.233826,211.018188 952.414734,211.012436 937.595886,211.049072 
	C937.437561,211.049454 937.279480,211.146713 937.121277,211.198761 
	C936.881531,218.242950 941.439392,224.725662 948.726868,227.138596 
	C957.930359,230.185913 966.372253,228.628189 973.946838,222.437103 
	C978.066772,219.069672 981.536621,219.034424 985.122375,222.051361 
	C989.726746,225.925293 990.228760,230.333038 985.783020,234.364655 
	C973.167297,245.805252 958.391113,248.157425 942.588745,242.874832 
	C927.910583,237.968048 920.222290,226.968521 918.078857,211.853394 
	C915.811707,195.865601 920.031433,182.249359 932.845825,171.883316 
	C939.169922,166.767471 946.703125,164.887222 955.114258,164.433044 
M941.706848,186.218903 
	C939.902466,189.232346 938.098022,192.245789 936.039124,195.684280 
	C949.322998,195.684280 961.456970,195.684280 973.672058,195.684280 
	C970.273071,180.444092 954.763123,175.712936 941.706848,186.218903 
z"/>
<path fill="#070707" opacity="1.000000" stroke="none" 
	d="
M1239.081543,217.036026 
	C1234.330078,235.647781 1218.659302,246.157654 1199.206787,245.331009 
	C1179.146606,244.478546 1165.148682,231.946625 1161.926147,212.795410 
	C1159.037354,195.627228 1165.719849,178.785324 1178.605835,170.757721 
	C1192.768433,161.934875 1211.738892,162.116714 1224.803833,171.748337 
	C1237.767700,181.305420 1242.142822,194.659042 1240.396851,210.305496 
	C1240.159424,212.433121 1239.574097,214.521927 1239.081543,217.036026 
M1189.731445,225.018768 
	C1194.684082,227.679779 1199.825806,229.085358 1205.484009,227.647903 
	C1213.410156,225.634338 1218.731934,220.696045 1220.821411,212.908798 
	C1223.357910,203.454758 1222.486572,194.442368 1214.987183,187.158249 
	C1205.104980,177.559753 1187.962891,180.639755 1182.207642,193.131744 
	C1177.358643,203.656723 1179.380981,218.240631 1189.731445,225.018768 
z"/>
<path fill="#070706" opacity="1.000000" stroke="none" 
	d="
M1455.483398,171.429443 
	C1476.353027,158.395767 1503.110840,164.503387 1513.306274,184.330231 
	C1522.949585,203.083481 1518.010376,227.123810 1502.240112,238.192886 
	C1489.346680,247.242767 1469.891113,247.807037 1456.939941,239.506805 
	C1443.733887,231.043182 1436.905640,214.487946 1439.591797,198.340271 
	C1441.415527,187.376862 1446.035400,178.236343 1455.483398,171.429443 
M1458.199341,199.212219 
	C1458.121338,202.367447 1457.812378,205.536880 1458.005249,208.675461 
	C1458.848389,222.398193 1471.945679,231.310318 1485.011963,227.163452 
	C1494.749390,224.073090 1500.221680,214.464828 1499.299805,202.077087 
	C1498.442383,190.554932 1491.125977,182.504364 1480.726196,181.639420 
	C1469.169800,180.678299 1461.426880,186.533615 1458.199341,199.212219 
z"/>
<path fill="#070606" opacity="1.000000" stroke="none" 
	d="
M620.583374,166.349014 
	C629.572571,163.379852 633.523621,165.684479 635.493652,174.949173 
	C643.234924,165.938950 652.909668,162.990250 664.284058,165.095932 
	C678.016357,167.638123 686.367004,177.720901 686.758240,193.301453 
	C687.113586,207.452087 686.910217,221.619247 686.796021,235.777878 
	C686.752197,241.206650 682.918884,244.614838 677.409119,244.619644 
	C672.020569,244.624359 668.689575,241.141281 668.672119,235.341843 
	C668.635925,223.347946 668.862488,211.349258 668.593079,199.361237 
	C668.325867,187.470596 662.604004,181.525421 652.314819,181.727631 
	C642.034241,181.929703 635.241272,189.300720 635.228027,200.342529 
	C635.214417,211.669861 635.286743,222.997345 635.260071,234.324615 
	C635.243530,241.324005 632.195435,244.648621 626.020691,244.588837 
	C620.142883,244.531937 616.995911,240.839249 616.996094,234.010025 
	C616.996704,214.352936 616.864685,194.694016 617.138672,175.040756 
	C617.178223,172.201294 619.162964,169.388931 620.583374,166.349014 
z"/>
<path fill="#060605" opacity="1.000000" stroke="none" 
	d="
M1021.973328,236.476746 
	C1020.677307,242.383240 1016.918396,245.147324 1011.573181,244.566544 
	C1006.490540,244.014282 1003.937561,241.006668 1003.928528,235.386429 
	C1003.896790,215.555923 1003.898621,195.725388 1003.888794,175.894852 
	C1003.885193,168.718552 1006.049438,165.577438 1011.349365,165.058777 
	C1017.847229,164.422867 1020.823181,167.059952 1022.108032,175.063126 
	C1029.524658,166.353714 1038.776733,163.393448 1049.697998,164.897522 
	C1064.075806,166.877594 1072.940186,176.646698 1073.813843,191.613831 
	C1074.686157,206.561371 1074.102417,221.598511 1074.006104,236.595383 
	C1073.973999,241.594376 1070.019287,244.718445 1064.511475,244.560669 
	C1059.099609,244.405640 1055.682007,241.267563 1055.628418,235.847427 
	C1055.511230,224.017685 1055.575439,212.185425 1055.648315,200.354706 
	C1055.722900,188.241730 1050.622437,181.903641 1040.546021,181.760544 
	C1029.444092,181.602890 1022.058411,189.004745 1021.984680,200.538925 
	C1021.909058,212.370224 1021.971802,224.202393 1021.973328,236.476746 
z"/>
<path fill="#080707" opacity="1.000000" stroke="none" 
	d="
M1253.077148,180.084412 
	C1253.068848,178.265610 1253.055176,176.932770 1253.058105,175.599945 
	C1253.073242,168.787384 1255.904053,165.292862 1261.582275,165.069763 
	C1267.524170,164.836319 1270.446289,167.733337 1271.184937,174.706253 
	C1271.639526,174.491714 1272.168823,174.399002 1272.453613,174.084686 
	C1281.650146,163.931427 1292.886353,162.152374 1305.252563,166.632462 
	C1317.540894,171.084366 1322.128174,181.211288 1322.556152,193.283798 
	C1323.057617,207.428085 1322.831543,221.602570 1322.713867,235.762238 
	C1322.666382,241.475601 1319.015625,244.664322 1313.415039,244.532516 
	C1308.142578,244.408447 1304.641113,241.155334 1304.583984,235.751236 
	C1304.464111,224.424347 1304.598267,213.094864 1304.604248,201.766434 
	C1304.605103,200.106400 1304.585571,198.433029 1304.387695,196.788422 
	C1303.038940,185.578583 1297.982910,181.069641 1287.496094,181.651535 
	C1278.343628,182.159393 1271.245728,189.582672 1271.135864,199.089203 
	C1270.995361,211.249985 1271.092285,223.413361 1271.044434,235.575455 
	C1271.020508,241.642044 1268.165039,244.487228 1262.246704,244.484711 
	C1256.726074,244.482361 1253.121216,241.095123 1253.102417,235.549698 
	C1253.040039,217.223450 1253.079346,198.896851 1253.077148,180.084412 
z"/>
<path fill="#070606" opacity="1.000000" stroke="none" 
	d="
M1343.444092,154.251373 
	C1343.346680,144.841034 1347.683472,141.040344 1355.516724,142.910080 
	C1359.397095,143.836288 1361.192871,146.178955 1361.281128,149.920532 
	C1361.398560,154.894104 1361.310059,159.872543 1361.310059,165.632614 
	C1365.874023,165.632614 1370.118652,165.543030 1374.358276,165.653641 
	C1380.721558,165.819626 1384.352417,170.910034 1382.484863,176.907852 
	C1381.403076,180.382202 1379.017334,181.975159 1375.386597,181.923004 
	C1370.930298,181.858963 1366.472290,181.907715 1361.548706,181.907715 
	C1361.548706,194.975357 1361.397949,207.573242 1361.627319,220.164200 
	C1361.712036,224.812073 1364.982544,227.224442 1369.378052,227.883026 
	C1371.331665,228.175720 1373.394287,228.188278 1375.351074,227.918640 
	C1379.635498,227.328217 1382.061768,229.236526 1382.957153,233.228561 
	C1383.879395,237.340591 1383.053589,240.882950 1378.903076,242.900757 
	C1362.594482,250.829193 1343.943848,239.508148 1343.592529,221.335999 
	C1343.373779,210.018875 1343.528687,198.694504 1343.516479,187.373383 
	C1343.514648,185.743759 1343.516235,184.114136 1343.516235,183.066696 
	C1339.203857,181.911896 1335.175537,181.326614 1331.676636,179.642044 
	C1330.362671,179.009445 1329.707886,175.817429 1329.730225,173.803085 
	C1329.833130,164.510635 1337.279541,165.974823 1343.444702,165.432648 
	C1343.444702,161.625473 1343.444702,158.171448 1343.444092,154.251373 
z"/>
<path fill="#070707" opacity="1.000000" stroke="none" 
	d="
M757.005676,243.789886 
	C750.833313,243.574341 748.116394,240.643036 748.115662,233.932281 
	C748.112122,202.600067 748.150452,171.267853 748.595703,139.574341 
	C749.546448,140.463943 750.075317,141.714859 750.604187,142.965790 
	C750.940857,142.801376 751.277588,142.636978 751.614258,142.472580 
	C750.718811,140.641373 749.823425,138.810181 748.927979,136.978989 
	C750.005859,132.727036 753.204590,131.231934 757.099548,131.214798 
	C775.401611,131.134262 793.704895,131.117081 812.006592,131.243774 
	C817.612366,131.282578 821.074890,135.323593 820.945618,141.001175 
	C820.813232,146.814041 817.951111,149.699707 811.841187,149.733597 
	C797.212341,149.814728 782.582825,149.759796 767.575256,149.759796 
	C767.575256,159.460922 767.575256,168.832825 767.889221,178.830627 
	C768.469604,179.970200 768.736023,180.483887 768.606323,181.006073 
	C766.596558,181.370316 764.973206,181.688065 763.370667,182.088684 
	C757.758606,183.491669 752.438293,191.470673 753.032227,197.288177 
	C753.485168,201.724411 753.814758,206.181915 753.971558,210.637970 
	C754.339233,221.087204 752.196411,231.762360 756.925110,241.808731 
	C757.184448,242.359680 756.989258,243.124573 757.005676,243.789886 
M762.565125,169.207458 
	C760.757019,168.183121 758.948975,167.158768 757.140869,166.134445 
	C755.766663,168.595459 753.597534,170.960190 753.283936,173.549652 
	C753.056213,175.429947 755.283508,177.607574 756.416199,179.652618 
	C758.307007,178.364960 760.679626,177.424408 761.936279,175.679947 
	C762.942932,174.282532 762.594116,171.908798 762.565125,169.207458 
M750.874390,225.701523 
	C750.874390,224.771072 750.874390,223.840607 750.874390,222.910156 
	C750.617432,222.923615 750.360474,222.937057 750.103516,222.950500 
	C750.219910,223.997177 750.336365,225.043839 750.874390,225.701523 
M750.990723,165.480911 
	C750.877991,164.982346 750.765320,164.483780 750.652649,163.985229 
	C750.424866,164.071014 750.197021,164.156815 749.969238,164.242599 
	C750.305725,164.854858 750.642212,165.467117 750.990723,165.480911 
z"/>
<path fill="#0C0C0C" opacity="1.000000" stroke="none" 
	d="
M1548.831543,212.999969 
	C1548.832520,220.656250 1548.875854,227.812805 1548.824463,234.968689 
	C1548.781128,241.007782 1545.533447,244.452850 1539.854126,244.643295 
	C1534.226929,244.832001 1530.473999,241.356628 1530.460693,235.379822 
	C1530.389160,203.261993 1530.398193,171.143829 1530.469482,139.025986 
	C1530.482788,133.055008 1533.940430,129.942352 1539.929810,129.982147 
	C1545.677124,130.020325 1548.760132,133.222427 1548.777954,139.605957 
	C1548.845947,163.903824 1548.822021,188.201950 1548.831543,212.999969 
z"/>
<path fill="#080808" opacity="1.000000" stroke="none" 
	d="
M1565.101807,198.999878 
	C1565.106567,178.849335 1565.086060,159.198608 1565.148804,139.548141 
	C1565.173462,131.849716 1571.428955,127.934418 1578.476562,130.947052 
	C1582.360107,132.607147 1583.133301,135.670166 1583.127197,139.435898 
	C1583.081665,167.745895 1583.097778,196.056000 1583.098389,224.366058 
	C1583.098389,228.196106 1583.192383,232.027634 1583.114746,235.855881 
	C1582.997925,241.614563 1579.658813,244.761353 1573.939941,244.647873 
	C1568.440796,244.538712 1565.206177,241.461334 1565.167114,235.970001 
	C1565.080811,223.813751 1565.121216,211.656601 1565.101807,198.999878 
z"/>
<path fill="#000000" opacity="1.000000" stroke="none" 
	d="
M757.454895,243.885468 
	C756.989258,243.124573 757.184448,242.359680 756.925110,241.808731 
	C752.196411,231.762360 754.339233,221.087204 753.971558,210.637970 
	C753.814758,206.181915 753.485168,201.724411 753.032227,197.288177 
	C752.438293,191.470673 757.758606,183.491669 763.370667,182.088684 
	C764.973206,181.688065 766.596558,181.370316 769.050049,181.006546 
	C772.258240,181.001389 774.626648,181.004272 777.064880,181.366241 
	C779.049194,183.463272 780.798340,184.078110 782.473267,181.006729 
	C791.625427,181.007507 800.309204,181.009735 809.071045,181.383743 
	C810.527344,181.600159 811.905640,181.444824 813.283997,181.289459 
	C814.170166,183.599182 815.056335,185.908905 815.413391,188.604919 
	C812.278687,189.483612 808.638489,189.067932 807.260559,190.637848 
	C803.044983,195.440659 801.635376,195.993546 795.699158,193.608856 
	C793.538818,192.740982 790.394043,192.415543 788.420105,193.356461 
	C782.936768,195.970306 777.433350,196.073624 772.331177,193.629227 
	C768.145081,191.623672 764.893921,191.842468 761.549255,194.128098 
	C762.441528,202.070389 766.234741,209.916031 759.359863,216.788818 
	C759.099548,217.049011 759.040466,217.979141 759.264709,218.183640 
	C761.806824,220.502136 764.422546,222.739868 767.018555,224.999252 
	C768.745361,225.343613 770.470215,225.975113 772.199280,225.986938 
	C786.156555,226.082428 800.114624,226.061356 814.415344,226.541290 
	C811.675964,227.553635 808.593689,228.100586 804.897461,228.756485 
	C807.919067,232.754730 810.658142,230.182098 812.883118,229.306595 
	C814.549255,230.247955 815.888794,231.004776 817.228271,231.761597 
	C817.539490,230.635193 817.850708,229.508789 818.161987,228.382401 
	C822.171204,229.681564 821.786438,233.061661 821.375122,236.598785 
	C814.220459,235.992645 813.196655,236.876190 812.992554,243.783432 
	C808.634644,243.846832 804.276672,243.910233 799.445923,243.486679 
	C796.111572,239.775284 792.509460,240.124420 790.992249,243.773270 
	C785.628540,243.835602 780.264893,243.897934 774.457520,243.443665 
	C770.839417,239.990173 769.583191,240.164413 767.991760,243.762360 
	C764.629211,243.835251 761.266663,243.908157 757.454895,243.885468 
M791.303467,227.999390 
	C789.543701,227.999390 787.783997,227.999390 786.024231,227.999390 
	C786.026733,228.241409 786.029236,228.483429 786.031738,228.725449 
	C789.001282,228.725449 791.970825,228.725449 794.940430,228.725449 
	C794.949646,228.543167 794.958923,228.360886 794.968201,228.178619 
	C794.015991,228.118912 793.063782,228.059204 791.303467,227.999390 
z"/>
<path fill="#0A0909" opacity="1.000000" stroke="none" 
	d="
M1392.408936,222.991882 
	C1392.425659,206.497162 1392.394287,190.500519 1392.493408,174.504715 
	C1392.540527,166.915314 1399.759888,162.053314 1405.680908,166.119568 
	C1408.432495,168.009216 1409.521484,172.319550 1411.388672,175.575333 
	C1411.406128,175.549759 1412.160034,174.473099 1412.881592,173.375244 
	C1417.025269,167.070999 1423.113525,164.526260 1430.380127,164.742905 
	C1435.600586,164.898529 1438.127930,168.166534 1437.973022,173.821152 
	C1437.805420,179.929718 1435.804077,182.009674 1430.026733,182.078781 
	C1418.437988,182.217438 1411.131958,189.696426 1410.832031,202.308334 
	C1410.570557,213.300003 1410.873169,224.303940 1410.763428,235.300812 
	C1410.692017,242.449799 1404.748291,246.363022 1397.996216,244.005615 
	C1394.376099,242.741669 1392.663818,240.217789 1392.591919,236.486404 
	C1392.508301,232.154846 1392.471436,227.822372 1392.408936,222.991882 
z"/>
<path fill="#060505" opacity="1.000000" stroke="none" 
	d="
M597.566040,241.275574 
	C593.782837,245.104202 589.591797,245.278839 585.379578,243.396225 
	C581.537720,241.679169 580.871704,238.155106 580.892273,234.206360 
	C580.995483,214.401245 580.934753,194.595322 580.953552,174.789703 
	C580.959839,168.177277 583.912170,165.064636 590.088684,165.054535 
	C596.179077,165.044571 599.129211,168.129211 599.141235,174.813248 
	C599.176697,194.617844 599.182068,214.422791 599.073425,234.226913 
	C599.061157,236.471649 598.248535,238.711990 597.566040,241.275574 
z"/>
<path fill="#080808" opacity="1.000000" stroke="none" 
	d="
M581.652039,148.105438 
	C578.145813,139.756622 580.998352,132.421127 588.008545,131.101974 
	C592.647461,130.229050 596.568542,131.480072 599.109558,135.763290 
	C601.695801,140.122772 601.308289,145.349152 598.191711,148.679810 
	C595.007324,152.082916 589.595825,153.182083 585.406189,151.091278 
	C584.116821,150.447830 583.072693,149.312943 581.652039,148.105438 
z"/>
<path fill="#070707" opacity="1.000000" stroke="none" 
	d="
M767.084351,224.534576 
	C764.422546,222.739868 761.806824,220.502136 759.264709,218.183640 
	C759.040466,217.979141 759.099548,217.049011 759.359863,216.788818 
	C766.234741,209.916031 762.441528,202.070389 761.549255,194.128098 
	C764.893921,191.842468 768.145081,191.623672 772.331177,193.629227 
	C777.433350,196.073624 782.936768,195.970306 788.420105,193.356461 
	C790.394043,192.415543 793.538818,192.740982 795.699158,193.608856 
	C801.635376,195.993546 803.044983,195.440659 807.260559,190.637848 
	C808.638489,189.067932 812.278687,189.483612 815.316956,188.991058 
	C813.893921,195.039398 811.739563,196.600540 805.472168,196.589752 
	C792.904846,196.568146 780.337524,196.583344 767.150085,196.583344 
	C767.150085,205.973114 767.150085,215.021515 767.084351,224.534576 
z"/>
<path fill="#101010" opacity="1.000000" stroke="none" 
	d="
M776.995117,181.007141 
	C774.626648,181.004272 772.258240,181.001389 769.446045,180.998047 
	C768.736023,180.483887 768.469604,179.970200 768.098999,179.186096 
	C782.167297,179.006958 796.339722,179.098221 810.618896,179.789825 
	C810.148071,180.597443 809.570557,180.804718 808.993042,181.011978 
	C800.309204,181.009735 791.625427,181.007507 782.055664,181.002853 
	C779.778259,181.002655 778.386658,181.004898 776.995117,181.007141 
z"/>
<path fill="#070707" opacity="1.000000" stroke="none" 
	d="
M813.366577,243.879730 
	C813.196655,236.876190 814.220459,235.992645 821.241577,236.981506 
	C820.646545,241.184677 818.331482,243.860352 813.366577,243.879730 
z"/>
<path fill="#070707" opacity="1.000000" stroke="none" 
	d="
M817.929382,228.184265 
	C817.850708,229.508789 817.539490,230.635193 817.228271,231.761597 
	C815.888794,231.004776 814.549255,230.247955 812.883118,229.306595 
	C810.658142,230.182098 807.919067,232.754730 804.897461,228.756485 
	C808.593689,228.100586 811.675964,227.553635 814.873596,226.642136 
	C815.891541,226.847107 816.794189,227.416611 817.929382,228.184265 
z"/>
<path fill="#070707" opacity="1.000000" stroke="none" 
	d="
M791.428467,243.873337 
	C792.509460,240.124420 796.111572,239.775284 798.990356,243.391083 
	C796.626709,243.846085 794.245728,243.909744 791.428467,243.873337 
z"/>
<path fill="#070707" opacity="1.000000" stroke="none" 
	d="
M768.369812,243.862259 
	C769.583191,240.164413 770.839417,239.990173 774.064331,243.349319 
	C772.325806,243.835114 770.536804,243.898636 768.369812,243.862259 
z"/>
<path fill="#101010" opacity="1.000000" stroke="none" 
	d="
M748.718262,137.175629 
	C749.823425,138.810181 750.718811,140.641373 751.614258,142.472580 
	C751.277588,142.636978 750.940857,142.801376 750.604187,142.965790 
	C750.075317,141.714859 749.546448,140.463943 748.694946,139.116547 
	C748.417664,138.470795 748.463135,137.921524 748.718262,137.175629 
z"/>
<path fill="#070707" opacity="1.000000" stroke="none" 
	d="
M809.071045,181.383743 
	C809.570557,180.804718 810.148071,180.597443 810.892700,180.123871 
	C811.701599,180.178314 812.343506,180.499069 813.134644,181.054657 
	C811.905640,181.444824 810.527344,181.600159 809.071045,181.383743 
z"/>
<path fill="#FDFDFD" opacity="1.000000" stroke="none" 
	d="
M882.564819,219.540131 
	C874.640198,226.819153 864.848633,228.272720 857.191895,223.548264 
	C849.407654,218.745087 845.521118,207.155029 848.300659,197.034103 
	C851.577759,185.101685 861.445923,178.931900 872.942566,182.059494 
	C885.100891,185.367111 889.228516,196.343903 887.566711,207.998581 
	C887.010376,211.900299 884.450073,215.516266 882.564819,219.540131 
z"/>
<path fill="#FDFDFD" opacity="1.000000" stroke="none" 
	d="
M941.977173,185.968475 
	C954.763123,175.712936 970.273071,180.444092 973.672058,195.684280 
	C961.456970,195.684280 949.322998,195.684280 936.039124,195.684280 
	C938.098022,192.245789 939.902466,189.232346 941.977173,185.968475 
z"/>
<path fill="#FDFDFD" opacity="1.000000" stroke="none" 
	d="
M1189.406250,224.831909 
	C1179.380981,218.240631 1177.358643,203.656723 1182.207642,193.131744 
	C1187.962891,180.639755 1205.104980,177.559753 1214.987183,187.158249 
	C1222.486572,194.442368 1223.357910,203.454758 1220.821411,212.908798 
	C1218.731934,220.696045 1213.410156,225.634338 1205.484009,227.647903 
	C1199.825806,229.085358 1194.684082,227.679779 1189.406250,224.831909 
z"/>
<path fill="#FDFDFD" opacity="1.000000" stroke="none" 
	d="
M1458.367188,198.816467 
	C1461.426880,186.533615 1469.169800,180.678299 1480.726196,181.639420 
	C1491.125977,182.504364 1498.442383,190.554932 1499.299805,202.077087 
	C1500.221680,214.464828 1494.749390,224.073090 1485.011963,227.163452 
	C1471.945679,231.310318 1458.848389,222.398193 1458.005249,208.675461 
	C1457.812378,205.536880 1458.121338,202.367447 1458.367188,198.816467 
z"/>
<path fill="#000000" opacity="1.000000" stroke="none" 
	d="
M762.706055,169.587921 
	C762.594116,171.908798 762.942932,174.282532 761.936279,175.679947 
	C760.679626,177.424408 758.307007,178.364960 756.416199,179.652618 
	C755.283508,177.607574 753.056213,175.429947 753.283936,173.549652 
	C753.597534,170.960190 755.766663,168.595459 757.140869,166.134430 
	C758.948975,167.158768 760.757019,168.183121 762.706055,169.587921 
z"/>
<path fill="#101010" opacity="1.000000" stroke="none" 
	d="
M750.663574,225.896027 
	C750.336365,225.043839 750.219910,223.997177 750.103516,222.950500 
	C750.360474,222.937057 750.617432,222.923615 750.874390,222.910156 
	C750.874390,223.840607 750.874390,224.771072 750.663574,225.896027 
z"/>
<path fill="#101010" opacity="1.000000" stroke="none" 
	d="
M750.984741,165.780136 
	C750.642212,165.467117 750.305725,164.854858 749.969238,164.242599 
	C750.197021,164.156815 750.424866,164.071014 750.652649,163.985229 
	C750.765320,164.483780 750.877991,164.982346 750.984741,165.780136 
z"/>
<path fill="#070707" opacity="1.000000" stroke="none" 
	d="
M791.707520,227.999451 
	C793.063782,228.059204 794.015991,228.118912 794.968201,228.178619 
	C794.958923,228.360886 794.949646,228.543167 794.940430,228.725449 
	C791.970825,228.725449 789.001282,228.725449 786.031738,228.725449 
	C786.029236,228.483429 786.026733,228.241409 786.024231,227.999390 
	C787.783997,227.999390 789.543701,227.999390 791.707520,227.999451 
z"/>
<path fill="#070707" opacity="1.000000" stroke="none" 
	d="
M777.064880,181.366226 
	C778.386658,181.004898 779.778259,181.002655 781.587341,181.004303 
	C780.798340,184.078110 779.049194,183.463272 777.064880,181.366226 
z"/>
</svg>